# xmcd CD database file
# Copyright (C) 1993-1998 Ti Kan
# 
# Track frame offsets:
#     150
#     19887
#     34087
#     52572
#     69730
#     85797
#     102005
#     123157
#     141220
#     155980
# 
# Disc length: 2300 seconds
# 
# Revision: 1
# Processed by: cddbd v1.4b41PL1 Copyright (c) Steve Scherf et al.
# Submitted via: DiscPlay 4.0.4
# 
DISCID=7c08fa0a
DTITLE=Ray Charles - Wish You Were Here Tonight
DYEAR=1900
DGENRE=
TTITLE0=3/4 Time
TTITLE1=I Wish You Were Here Tonight
TTITLE2=Ain't Your Memory Got No Pride At All
TTITLE3=Born To Love Me
TTITLE4=I Don't Want No Stranger Sleepin' In My Bed
TTITLE5=Let Your Love Flow
TTITLE6=You Feel Good All Over
TTITLE7=String Bean
TTITLE8=You've Got The Longest Leaving Act In Town
TTITLE9=Shakin' Your Head
EXTD=
EXTT0=
EXTT1=
EXTT2=
EXTT3=
EXTT4=
EXTT5=
EXTT6=
EXTT7=
EXTT8=
EXTT9=
PLAYORDER=
